<svg xmlns="http://www.w3.org/2000/svg" clip-rule="evenodd" fill-rule="evenodd" stroke-linejoin="round" stroke-miterlimit="2" viewBox="0 0 500 500"><path d="m232.906 441.674h-154.539c-5.04 0-9.126-4.085-9.126-9.125v-156.317h-40.755c-6.047 0-10.95-4.903-10.95-10.95 0-2.879 1.134-5.642 3.156-7.691l219.515-222.473c5.31-5.381 13.976-5.439 19.357-.129.036.035.071.07.106.106l114.615 115.6v-21.38c0-5.039 4.086-9.125 9.125-9.125h38.066c5.04 0 9.125 4.086 9.125 9.125v78.517l48.738 49.79c4.23 4.322 4.156 11.255-.166 15.485-2.046 2.003-4.795 3.125-7.659 3.125h-40.913v156.317c0 5.04-4.085 9.125-9.125 9.125h-171.98l34.024-34.024h31.424c2.416 6.836 8.934 11.733 16.597 11.733 9.719 0 17.598-7.88 17.598-17.599s-7.879-17.599-17.598-17.599c-7.663 0-14.181 4.898-16.597 11.733h-36.283l-31.594 31.594v-38.55l37.626-37.627h60.755c2.417 6.835 8.935 11.732 16.597 11.732 9.719 0 17.599-7.879 17.599-17.599 0-9.719-7.88-17.598-17.599-17.598-7.663 0-14.181 4.897-16.597 11.732h-49.022l35.115-35.114v-29.331l25.263-25.264c2.297 1.1 4.87 1.716 7.587 1.716 9.72 0 17.599-7.88 17.599-17.599s-7.879-17.599-17.599-17.599c-9.719 0-17.598 7.88-17.598 17.599-.004 2.626.582 5.22 1.715 7.589l-16.967 16.967v-53.716c6.835-2.416 11.732-8.934 11.732-16.597 0-9.719-7.88-17.598-17.599-17.598s-17.598 7.879-17.598 17.598c0 7.663 4.897 14.181 11.732 16.597v53.716l-16.967-16.969c1.099-2.297 1.715-4.87 1.715-7.587 0-9.719-7.88-17.599-17.599-17.599s-17.598 7.88-17.598 17.599 7.879 17.599 17.598 17.599c2.626.003 5.219-.584 7.588-1.717l25.263 25.264v24.474l-31.678 31.677v-23.21c6.836-2.416 11.733-8.934 11.733-16.597 0-9.719-7.88-17.598-17.599-17.598s-17.598 7.879-17.598 17.598c0 7.663 4.897 14.181 11.732 16.597v34.943l-29.331 29.331v-172.302l24.09-24.09c2.297 1.099 4.87 1.715 7.588 1.715 9.719 0 17.598-7.879 17.598-17.598 0-9.72-7.879-17.599-17.598-17.599-9.72 0-17.599 7.879-17.599 17.599-.004 2.626.582 5.219 1.715 7.588l-21.66 21.661-21.661-21.662c1.1-2.297 1.715-4.87 1.715-7.587 0-9.72-7.879-17.599-17.598-17.599s-17.599 7.879-17.599 17.599c0 9.719 7.88 17.598 17.599 17.598 2.625.004 5.219-.582 7.587-1.715l24.09 24.089v123.025l-42.236-42.236v-33.77c6.835-2.416 11.732-8.934 11.732-16.597 0-9.719-7.879-17.598-17.599-17.598-9.719 0-17.598 7.879-17.598 17.598 0 7.663 4.897 14.181 11.732 16.597v22.038l-32.851-32.851v-32.597c6.836-2.416 11.733-8.934 11.733-16.597 0-9.719-7.88-17.598-17.599-17.598s-17.599 7.879-17.599 17.598c0 7.663 4.897 14.181 11.733 16.597v37.456l36.288 36.287h-20.865c-2.415-6.835-8.934-11.732-16.596-11.732-9.72 0-17.599 7.879-17.599 17.598s7.879 17.599 17.599 17.599c7.662 0 14.18-4.897 16.596-11.732h32.597l50.532 50.531v87.829l-26.984-26.984v-33.77c6.835-2.415 11.732-8.934 11.732-16.597 0-9.719-7.879-17.598-17.598-17.598-9.72 0-17.599 7.879-17.599 17.598 0 7.663 4.897 14.182 11.732 16.597v22.037l-39.259-39.26c1.1-2.297 1.715-4.87 1.715-7.587 0-9.72-7.879-17.599-17.598-17.599s-17.599 7.879-17.599 17.599c0 9.719 7.88 17.598 17.599 17.598 2.626.004 5.219-.582 7.588-1.715l39.259 39.259h-20.865c-2.415-6.835-8.934-11.732-16.596-11.732-9.719 0-17.599 7.879-17.599 17.598 0 9.72 7.88 17.599 17.599 17.599 7.662 0 14.18-4.897 16.596-11.732h32.598zm-82.045-31.677c3.861 0 7.039-3.178 7.039-7.04 0-3.861-3.178-7.039-7.039-7.039-3.862 0-7.04 3.178-7.04 7.039 0 3.862 3.178 7.04 7.04 7.04zm180.68-1.173c3.861 0 7.039-3.178 7.039-7.04s-3.178-7.039-7.039-7.039c-3.862 0-7.04 3.177-7.04 7.039s3.178 7.04 7.04 7.04zm-129.057-51.623c3.861 0 7.039-3.178 7.039-7.04 0-3.861-3.178-7.039-7.039-7.039-3.862 0-7.04 3.178-7.04 7.039 0 3.862 3.178 7.04 7.04 7.04zm159.561-4.693c3.862 0 7.039-3.178 7.039-7.04 0-3.861-3.177-7.039-7.039-7.039s-7.04 3.178-7.04 7.039c0 3.862 3.178 7.04 7.04 7.04zm-220.57-3.52c3.862 0 7.039-3.178 7.039-7.039 0-3.862-3.177-7.04-7.039-7.04s-7.04 3.178-7.04 7.04c0 3.861 3.178 7.039 7.04 7.039zm140.789-50.449c3.862 0 7.04-3.178 7.04-7.04s-3.178-7.039-7.04-7.039c-3.861 0-7.039 3.177-7.039 7.039s3.178 7.04 7.039 7.04zm-146.655-8.213c3.861 0 7.039-3.178 7.039-7.04 0-3.861-3.178-7.039-7.039-7.039-3.862 0-7.04 3.178-7.04 7.039 0 3.862 3.178 7.04 7.04 7.04zm151.348-49.277c3.862 0 7.04-3.177 7.04-7.039s-3.178-7.039-7.04-7.039-7.039 3.177-7.039 7.039 3.177 7.039 7.039 7.039zm77.434 0c3.862 0 7.04-3.177 7.04-7.039s-3.178-7.039-7.04-7.039c-3.861 0-7.039 3.177-7.039 7.039s3.178 7.039 7.039 7.039zm-177.16-3.519c3.862 0 7.04-3.178 7.04-7.04 0-3.861-3.178-7.039-7.04-7.039-3.861 0-7.039 3.178-7.039 7.039 0 3.862 3.178 7.04 7.039 7.04zm138.443-42.237c3.862 0 7.04-3.178 7.04-7.04 0-3.861-3.178-7.039-7.04-7.039-3.861 0-7.039 3.178-7.039 7.039 0 3.862 3.178 7.04 7.039 7.04zm-183.026-1.173c3.862 0 7.04-3.178 7.04-7.04s-3.178-7.039-7.04-7.039-7.039 3.177-7.039 7.039 3.177 7.04 7.039 7.04zm61.009-26.985c3.862 0 7.039-3.178 7.039-7.039 0-3.862-3.177-7.04-7.039-7.04s-7.04 3.178-7.04 7.04c0 3.861 3.178 7.039 7.04 7.039zm75.088 0c3.861 0 7.039-3.178 7.039-7.039 0-3.862-3.178-7.04-7.039-7.04-3.862 0-7.04 3.178-7.04 7.04 0 3.861 3.178 7.039 7.04 7.039z" fill="#fff"/></svg>
